# xmcd
#
# Track frame offsets:
#	150
#	57712
#	95751
#	150238
#	193049
#	242461
#	274347
#	304642
#
# Disc length: 4756 seconds
#
# Revision: 1
# Processed by: cddbd v1.5.2PL0 Copyright (c) Steve Scherf et al.
#
# Submitted via: freedbSubmitter v2.1
#
DISCID=68129208
DTITLE=Dizzy Gillespie - Milestones of a Legend (1948-1961) CD08
DYEAR=2017
DGENRE=Jazz
TTITLE0=Be-Bop
TTITLE1=Wee
TTITLE2=Dark Eyes
TTITLE3=Lover Come Back to Me
TTITLE4=Kush (LIVE)
TTITLE5=Salt Peanuts (LIVE)
TTITLE6=A Night in Tunisia (LIVE)
TTITLE7=The Mooche (LIVE)
EXTD=YEAR: 1961
EXTT0=
EXTT1=
EXTT2=
EXTT3=
EXTT4=
EXTT5=
EXTT6=
EXTT7=
PLAYORDER=
